name D:\school\WTK\thesis\model\3dpredictsim\Results\batch_windlass\Pog_s1_tmt_aCst_d05_k500_WL10_ig24_act_TTC.mot
datacolumns 128
datarows 4
range 0.59066641 0.62610639
endheader
time	pelvis_tilt	pelvis_list	pelvis_rotation	pelvis_tx	pelvis_ty	pelvis_tz	hip_flexion_l	hip_adduction_l	hip_rotation_l	hip_flexion_r	hip_adduction_r	hip_rotation_r	knee_angle_l	knee_angle_r	ankle_angle_l	ankle_angle_r	subtalar_angle_l	subtalar_angle_r	tmt_angle_l	tmt_angle_r	mtp_angle_l	mtp_angle_r	lumbar_extension	lumbar_bending	lumbar_rotation	arm_flex_l	arm_add_l	arm_rot_l	arm_flex_r	arm_add_r	arm_rot_r	elbow_flex_l	elbow_flex_r	pro_sup_l	pro_sup_r	glut_med1_l/activation	glut_med2_l/activation	glut_med3_l/activation	glut_min1_l/activation	glut_min2_l/activation	glut_min3_l/activation	semimem_l/activation	semiten_l/activation	bifemlh_l/activation	bifemsh_l/activation	sar_l/activation	add_long_l/activation	add_brev_l/activation	add_mag1_l/activation	add_mag2_l/activation	add_mag3_l/activation	tfl_l/activation	pect_l/activation	grac_l/activation	glut_max1_l/activation	glut_max2_l/activation	glut_max3_l/activation	iliacus_l/activation	psoas_l/activation	quad_fem_l/activation	gem_l/activation	peri_l/activation	rect_fem_l/activation	vas_med_l/activation	vas_int_l/activation	vas_lat_l/activation	med_gas_l/activation	lat_gas_l/activation	soleus_l/activation	tib_post_l/activation	flex_dig_l/activation	flex_hal_l/activation	tib_ant_l/activation	per_brev_l/activation	per_long_l/activation	per_tert_l/activation	ext_dig_l/activation	ext_hal_l/activation	ercspn_l/activation	intobl_l/activation	extobl_l/activation	glut_med1_r/activation	glut_med2_r/activation	glut_med3_r/activation	glut_min1_r/activation	glut_min2_r/activation	glut_min3_r/activation	semimem_r/activation	semiten_r/activation	bifemlh_r/activation	bifemsh_r/activation	sar_r/activation	add_long_r/activation	add_brev_r/activation	add_mag1_r/activation	add_mag2_r/activation	add_mag3_r/activation	tfl_r/activation	pect_r/activation	grac_r/activation	glut_max1_r/activation	glut_max2_r/activation	glut_max3_r/activation	iliacus_r/activation	psoas_r/activation	quad_fem_r/activation	gem_r/activation	peri_r/activation	rect_fem_r/activation	vas_med_r/activation	vas_int_r/activation	vas_lat_r/activation	med_gas_r/activation	lat_gas_r/activation	soleus_r/activation	tib_post_r/activation	flex_dig_r/activation	flex_hal_r/activation	tib_ant_r/activation	per_brev_r/activation	per_long_r/activation	per_tert_r/activation	ext_dig_r/activation	ext_hal_r/activation	ercspn_r/activation	intobl_r/activation	extobl_r/activation	
          0.59066641	         -2.92816392	          0.29603866	         -8.20217143	          0.73833301	          0.85797196	          0.00125235	         32.84403035	         -0.32633098	          0.46426093	        -15.66827815	         -1.85655232	         10.31120960	        -20.33541286	        -17.09751809	         -0.75850956	        -12.15441823	          5.48461864	         18.56310097	          0.03192421	         -1.79426912	          0.20634862	         32.54159012	          0.83672411	          2.40087000	          2.59875862	        -12.89905761	        -13.72004491	         14.67337136	          4.09333964	        -13.48627704	         17.40757356	         16.93370062	         38.99129396	         86.51662706	         86.51662706	          0.05475473	          0.05404748	          0.05984394	          0.05000355	          0.05000277	          0.05000452	          0.12771074	          0.07162702	          0.21839037	          0.05984659	          0.05000076	          0.05456613	          0.11594077	          0.10858424	          0.12159661	          0.13170100	          0.05000126	          0.05000355	          0.06353840	          0.05984452	          0.10505187	          0.12384317	          0.07479303	          0.07167644	          0.09982599	          0.05000249	          0.05000139	          0.05000008	          0.05000063	          0.06521636	          0.06076910	          0.08572978	          0.08572974	          0.07162719	          0.05000020	          0.05984456	          0.05001620	          0.42040470	          0.23736870	          0.14651031	          0.16022730	          0.45836302	          0.13439224	          0.05000003	          0.13297014	          0.13912573	          0.15143366	          0.06554151	          0.05984458	          0.19624965	          0.13215229	          0.08573162	          0.05000196	          0.05000023	          0.05000024	          0.05000030	          0.08351496	          0.08889479	          0.05000029	          0.05000032	          0.05000077	          0.05000059	          0.16214474	          0.05000148	          0.05000053	          0.05000407	          0.05000237	          0.05000112	          0.38533217	          0.58232006	          0.05000082	          0.05000417	          0.08572969	          0.30165370	          0.07418521	          0.07714598	          0.10713158	          0.14479699	          0.21009576	          0.05000009	          0.13571889	          0.15443517	          0.16546347	          0.08421927	          0.45051735	          0.37710559	          0.45029715	          0.35867147	          0.14023750	          0.05000000	          0.05954274	          0.05000010	
          0.60247973	         -2.91922691	          0.24725481	         -8.40242425	          0.75729537	          0.85648313	          0.00098875	         32.36665053	         -0.09625757	          0.66859770	        -15.77851929	         -2.03540332	         10.12693674	        -20.40266919	        -18.31812601	         -1.16041551	        -14.92417962	          4.98767321	         18.97610668	          0.02704068	         -2.42867825	          0.30983858	         33.79912474	          1.07435059	          2.23078630	          2.67400464	        -14.25689653	        -13.70181128	         14.72339372	          3.69465945	        -13.53534672	         17.62161862	         16.98282301	         39.98650548	         86.51662706	         86.51662706	          0.06183924	          0.05000036	          0.05000016	          0.05854023	          0.05000230	          0.05000061	          0.10670239	          0.05984438	          0.18246514	          0.05000184	          0.05000776	          0.08573001	          0.11215265	          0.24491866	          0.18524652	          0.15863047	          0.05000021	          0.05181890	          0.05308647	          0.05000044	          0.13061768	          0.15970461	          0.07162685	          0.06603430	          0.08340488	          0.05984503	          0.07852799	          0.05815339	          0.16756936	          0.16461443	          0.14863511	          0.07162719	          0.07162717	          0.05984449	          0.05000003	          0.05000041	          0.05000095	          0.54550754	          0.19832146	          0.12240931	          0.53021109	          0.55809574	          0.33525665	          0.05000002	          0.11109649	          0.11623949	          0.12652278	          0.05475998	          0.05000020	          0.16396654	          0.11041323	          0.07162891	          0.05000139	          0.05000015	          0.05000015	          0.05000063	          0.06977703	          0.15643145	          0.19944374	          0.08413372	          0.05000272	          0.05000046	          0.13547191	          0.10256751	          0.05998879	          0.05000093	          0.05000059	          0.05000045	          0.32194486	          0.48652818	          0.05000037	          0.05000094	          0.07162758	          0.25203153	          0.06198195	          0.06445571	          0.09965441	          0.12097782	          0.17553491	          0.05000003	          0.11339307	          0.12903053	          0.13824466	          0.28017415	          0.49471210	          0.36791524	          0.69248339	          0.52211571	          0.25395706	          0.05000000	          0.06156894	          0.07559253	
          0.61429306	         -2.90425245	          0.21307872	         -8.57166575	          0.77644187	          0.85455662	          0.00072096	         31.78386541	          0.18692541	          0.93883536	        -15.68494510	         -2.18047290	          9.93393178	        -21.12978900	        -19.95680472	         -1.53498363	        -17.42842469	          4.46135427	         19.31946115	          0.01791460	         -2.85598162	          0.44691760	         33.90369872	          1.31856389	          2.03217105	          2.73662225	        -15.59617649	        -13.69536636	         14.82620996	          3.23497621	        -13.60950041	         17.78338445	         17.01066429	         40.99090423	         86.51662706	         86.51662706	          0.21637908	          0.05000029	          0.26387248	          0.05000014	          0.05000016	          0.05000030	          0.08914982	          0.05000010	          0.15244954	          0.05000008	          0.05000069	          0.07162757	          0.09370385	          0.23320664	          0.21919855	          0.17710278	          0.05000080	          0.05984649	          0.06413395	          0.05000112	          0.19184659	          0.18163262	          0.05984444	          0.05984432	          0.21893159	          0.05000141	          0.06561031	          0.05984445	          0.30431898	          0.28509961	          0.25562101	          0.05984449	          0.05984448	          0.05000004	          0.06855167	          0.05000038	          0.05000013	          0.57808483	          0.16569750	          0.10227293	          0.44299402	          0.48226321	          0.28010687	          0.05000001	          0.09282107	          0.09711804	          0.10570974	          0.05984451	          0.06909641	          0.13699401	          0.09225025	          0.05984619	          0.07235181	          0.05981253	          0.05984453	          0.05000012	          0.05829885	          0.20814977	          0.32068193	          0.22672160	          0.10463965	          0.09471930	          0.11318677	          0.08569553	          0.05984732	          0.05984524	          0.05984586	          0.06064586	          0.26898479	          0.41699798	          0.07512013	          0.06992814	          0.05984495	          0.21057222	          0.07162763	          0.10376204	          0.08326145	          0.10107691	          0.14665934	          0.05000005	          0.09473986	          0.10780498	          0.11550336	          0.33730235	          0.46229512	          0.34291715	          0.71494084	          0.61910609	          0.40282464	          0.07092840	          0.06681846	          0.07162726	
          0.62610639	         -2.88616417	          0.19184219	         -8.70370040	          0.79556168	          0.85239250	          0.00046709	         31.00210040	          0.48593170	          1.25718231	        -15.38259079	         -2.29532895	          9.74005769	        -22.09266240	        -21.99660016	         -1.38511532	        -19.47079536	          3.89840702	         19.57321675	         -0.39874562	         -3.00864040	          0.39120022	         32.22913797	          1.55578404	          1.80956665	          2.78393247	        -16.85926323	        -13.69917507	         15.01928235	          2.75045249	        -13.69245923	         17.89961158	         16.97233076	         41.95932619	         86.51662706	         86.51662706	          0.31411308	          0.36269929	          0.53542868	          0.12199094	          0.19583722	          0.33595270	          0.07448472	          0.08545126	          0.12737153	          0.05000140	          0.05000025	          0.05984484	          0.07828956	          0.19484431	          0.21229170	          0.18789534	          0.05000010	          0.05000223	          0.07162643	          0.28040489	          0.26754153	          0.22057026	          0.05000005	          0.05000004	          0.18291814	          0.05984394	          0.25407145	          0.05000003	          0.28786041	          0.29146297	          0.26944368	          0.05000005	          0.05000007	          0.05000003	          0.15315584	          0.05000076	          0.05000155	          0.65545180	          0.13844019	          0.08544899	          0.37012136	          0.52263025	          0.43311842	          0.05000001	          0.07755196	          0.08114207	          0.17046030	          0.05000036	          0.05773004	          0.11445871	          0.07707513	          0.05000182	          0.10796950	          0.05000008	          0.05000020	          0.05000010	          0.05000947	          0.17390907	          0.26792966	          0.18942584	          0.08742654	          0.07913805	          0.09456765	          0.07159876	          0.05000250	          0.05000151	          0.05000150	          0.05066968	          0.22473668	          0.39682366	          0.06276284	          0.05842504	          0.05000050	          0.17593300	          0.05984521	          0.08669353	          0.08075950	          0.08444971	          0.12253381	          0.05000032	          0.07915511	          0.09007104	          0.09650302	          0.29770572	          0.39332694	          0.30023538	          0.62427555	          0.78691905	          0.33655986	          0.11257326	          0.05582679	          0.05984455	
